# xmcd
#
# Track frame offsets:
#	182
#	17412
#	32652
#	48015
#	64867
#	82205
#	97032
#	113705
#	131600
#	149410
#	163932
#	178635
#
# Disc length: 2589 seconds
#
# Revision: 0
# Processed by: cddbd v1.4PL0 Copyright (c) Steve Scherf et al.
# Submitted via: audiograbber 1.80
#
DISCID=a10a1b0c
DTITLE=Richard Anthony - Retour
DYEAR=1900
DGENRE=
TTITLE0=Maggy May
TTITLE1=Non-stop (J'ai décidé de vivre)
TTITLE2=Vers la californie
TTITLE3=Léon
TTITLE4=Mes années 60
TTITLE5=Le sorcier du flipper
TTITLE6=Juliet
TTITLE7=Sans toi
TTITLE8=C'est à prendre ou à laisser
TTITLE9=Tu est sortie de ma vie
TTITLE10=Soleil rouge
TTITLE11=Laissez-moi dériver sur la mer
EXTD=
EXTT0=
EXTT1=
EXTT2=
EXTT3=
EXTT4=
EXTT5=
EXTT6=
EXTT7=
EXTT8=
EXTT9=
EXTT10=
EXTT11=
PLAYORDER=
